<svg xmlns="http://www.w3.org/2000/svg" xmlns:xlink="http://www.w3.org/1999/xlink" width="64" height="64" viewBox="0 0 64 64">
    <defs>
        <path id="a" d="M32 56c-2.757 0-5-2.243-5-5s2.243-5 5-5 5 2.243 5 5-2.243 5-5 5zm0-12a7 7 0 1 0 0 14 7 7 0 0 0 0-14zm-17-5c-2.757 0-5-2.243-5-5s2.243-5 5-5 5 2.243 5 5-2.243 5-5 5zm0-12a7 7 0 1 0 0 14 7 7 0 0 0 0-14zm17 12c-2.757 0-5-2.243-5-5s2.243-5 5-5 5 2.243 5 5-2.243 5-5 5zm0-12a7 7 0 1 0 0 14 7 7 0 0 0 0-14zm17 29c-2.757 0-5-2.243-5-5s2.243-5 5-5 5 2.243 5 5-2.243 5-5 5zm0-12a7 7 0 1 0 0 14 7 7 0 0 0 0-14zm11 14c0 1.103-.897 2-2 2H6c-1.103 0-2-.897-2-2V27c0-1.103.897-2 2-2h52c1.103 0 2 .897 2 2v31zm-2-35H6a4 4 0 0 0-4 4v31a4 4 0 0 0 4 4h52a4 4 0 0 0 4-4V27a4 4 0 0 0-4-4zm-9 16c-2.757 0-5-2.243-5-5s2.243-5 5-5 5 2.243 5 5-2.243 5-5 5zm0-12a7 7 0 1 0 0 14 7 7 0 0 0 0-14zM7 5c1.82 0 4.596.598 6.599 1.421.138.057.234.109.297.149l.104.043v2.77l-.059.019a3.616 3.616 0 0 1-.295.139C11.638 10.386 8.843 11 7 11c-2.243 0-3-.757-3-3s.757-3 3-3zm9 4.5h7.187v-3H16v3zm9.188-3H58.5c.827 0 1.5.673 1.5 1.5s-.673 1.5-1.5 1.5H25.188v-3zM7 13c1.955 0 4.812-.577 7.123-1.5H58.5A3.51 3.51 0 0 0 62 8a3.51 3.51 0 0 0-3.5-3.5H14.172C11.849 3.576 8.956 3 7 3 3.134 3 2 5.239 2 8c0 2.762 1.134 5 5 5zm8 43c-2.757 0-5-2.243-5-5s2.243-5 5-5 5 2.243 5 5-2.243 5-5 5zm0-12a7 7 0 1 0 0 14 7 7 0 0 0 0-14z"/>
    </defs>
    <g fill="none" fill-rule="evenodd">
        <mask id="b" fill="#fff">
            <use xlink:href="#a"/>
        </mask>
        <use fill="#02906F" xlink:href="#a"/>
        <g fill="#101010" mask="url(#b)">
            <path d="M0 0h64v64H0z"/>
        </g>
    </g>
</svg>
