<?xml version="1.0" encoding="utf-8"?>
<!-- Generator: Adobe Illustrator 23.1.1, SVG Export Plug-In . SVG Version: 6.00 Build 0)  -->
<svg version="1.1" id="Layer_1" xmlns="http://www.w3.org/2000/svg" xmlns:xlink="http://www.w3.org/1999/xlink" x="0px" y="0px"
	 width="64px" height="64px" viewBox="0 0 64 64" enable-background="new 0 0 64 64" xml:space="preserve">
<g>
	<path id="a_20_" fill-rule="evenodd" clip-rule="evenodd" d="M32,55.5c-2.76,0-5-2.24-5-5s2.24-5,5-5s5,2.24,5,5
		S34.76,55.5,32,55.5z M32,43.5c-3.87,0-7,3.13-7,7s3.13,7,7,7s7-3.13,7-7S35.87,43.5,32,43.5z M15,38.5c-2.76,0-5-2.24-5-5
		s2.24-5,5-5s5,2.24,5,5S17.76,38.5,15,38.5z M15,26.5c-3.87,0-7,3.13-7,7s3.13,7,7,7s7-3.13,7-7S18.87,26.5,15,26.5z M32,38.5
		c-2.76,0-5-2.24-5-5s2.24-5,5-5s5,2.24,5,5S34.76,38.5,32,38.5z M32,26.5c-3.87,0-7,3.13-7,7s3.13,7,7,7s7-3.13,7-7
		S35.87,26.5,32,26.5z M49,55.5c-2.76,0-5-2.24-5-5s2.24-5,5-5s5,2.24,5,5S51.76,55.5,49,55.5z M49,43.5c-3.87,0-7,3.13-7,7
		s3.13,7,7,7s7-3.13,7-7S52.87,43.5,49,43.5z M60,57.5c0,1.1-0.9,2-2,2H6c-1.1,0-2-0.9-2-2v-31c0-1.1,0.9-2,2-2h52c1.1,0,2,0.9,2,2
		V57.5z M58,22.5H6c-2.21,0-4,1.79-4,4v31c0,2.21,1.79,4,4,4h52c2.21,0,4-1.79,4-4v-31C62,24.29,60.21,22.5,58,22.5z M49,38.5
		c-2.76,0-5-2.24-5-5s2.24-5,5-5s5,2.24,5,5S51.76,38.5,49,38.5z M49,26.5c-3.87,0-7,3.13-7,7s3.13,7,7,7s7-3.13,7-7
		S52.87,26.5,49,26.5z M7,4.5c1.82,0,4.6,0.6,6.6,1.42c0.14,0.06,0.23,0.11,0.3,0.15L14,6.11v2.77L13.94,8.9
		c-0.1,0.05-0.19,0.1-0.3,0.14C11.64,9.89,8.84,10.5,7,10.5c-2.24,0-3-0.76-3-3S4.76,4.5,7,4.5z M16,9h7.19V6H16V9z M25.19,6H58.5
		C59.33,6,60,6.67,60,7.5S59.33,9,58.5,9H25.19V6z M7,12.5c1.95,0,4.81-0.58,7.12-1.5H58.5c1.93-0.01,3.49-1.57,3.5-3.5
		c-0.01-1.93-1.57-3.49-3.5-3.5H14.17C11.85,3.08,8.96,2.5,7,2.5c-3.87,0-5,2.24-5,5C2,10.26,3.13,12.5,7,12.5z M15,55.5
		c-2.76,0-5-2.24-5-5s2.24-5,5-5s5,2.24,5,5S17.76,55.5,15,55.5z M15,43.5c-3.87,0-7,3.13-7,7s3.13,7,7,7s7-3.13,7-7
		S18.87,43.5,15,43.5z"/>
</g>
</svg>
