<svg xmlns="http://www.w3.org/2000/svg" xmlns:xlink="http://www.w3.org/1999/xlink" width="64" height="64" viewBox="0 0 64 64">
    <defs>
        <path id="a" d="M48.875 33.625a.844.844 0 1 0 0 1.687.844.844 0 0 0 0-1.687zm-10.969-6.75a.844.844 0 1 0 0 1.687.844.844 0 0 0 0-1.687zm4.922 1.687a.844.844 0 1 0 0 1.687.844.844 0 0 0 0-1.687zm14.485 17.72a.844.844 0 0 1-.844.843H7.53a.844.844 0 0 1-.843-.844v-1.687c0-.466.378-.844.843-.844H56.47c.466 0 .844.378.844.844v1.687zm-.844-4.22H7.53a2.534 2.534 0 0 0-2.53 2.532v1.687a2.534 2.534 0 0 0 2.53 2.531H56.47A2.534 2.534 0 0 0 59 46.282v-1.688a2.534 2.534 0 0 0-2.531-2.532zm.65 19.106c-.23.68-.869 1.144-1.598 1.144H8.48a1.685 1.685 0 0 1-1.598-1.144l-.192-3.918H57.31l-.19 3.918zm.194-5.606H6.688c-.932 0-1.688.756-1.688 1.688l.204 4.194A3.375 3.375 0 0 0 8.48 64H55.52a3.375 3.375 0 0 0 3.274-2.556L59 57.25c0-.932-.756-1.688-1.687-1.688zM25.25 24.344h8.156l.006-.002c.342.112.73.248 1.188.428 4.105 1.611 8.46 2.44 12.749 2.44.972 0 1.94-.042 2.9-.128l.212-.019c1.013.672 2.834 2.093 3.618 3.264 1.94 2.895 3.014 5.705 3.203 8.36H6.71c.38-6.802 5.386-14.343 18.54-14.343zm10.54-2.969l9.699-.792a.844.844 0 0 0 .773-.91.854.854 0 0 0-.91-.772l-8.355.682 1.67-2.48 6.291-.69a.844.844 0 0 0-.184-1.678l-4.871.534 5.067-7.522 4.452 17.706c-4.732.32-9.632-.459-14.206-2.254-.182-.071-.356-.139-.521-.2l1.094-1.624zM44.097 3.39c-.05-.376.066-.757.329-1.072a1.794 1.794 0 0 1 1.148-.614c.086-.012.172-.018.257-.018.37 0 .722.108 1.013.312.335.233.548.57.598.948.107.807-.556 1.563-1.478 1.686a1.787 1.787 0 0 1-1.27-.294 1.373 1.373 0 0 1-.597-.948zM5.844 40.375h52.312a.843.843 0 0 0 .844-.844c0-3.242-1.184-6.655-3.518-10.143-.956-1.428-3.055-3.086-4.303-3.866L46.338 6.27c1.762-.313 3.001-1.868 2.777-3.547A3.045 3.045 0 0 0 47.811.614a3.478 3.478 0 0 0-2.459-.582 3.479 3.479 0 0 0-2.22 1.204 3.054 3.054 0 0 0-.707 2.378c.113.85.576 1.6 1.304 2.108.13.091.268.17.41.24l-6.581 9.768a.831.831 0 0 0-.155.23l-4.51 6.696H25.25C11.262 22.656 5 31.132 5 39.531c0 .467.377.844.844.844zm.579 14.115l1.961-1.847a1.69 1.69 0 0 1 2.23-.073l.763.628a3.376 3.376 0 0 0 4.293 0l.874-.72a1.69 1.69 0 0 1 2.148 0l.874.72a3.376 3.376 0 0 0 4.293 0l.874-.72a1.69 1.69 0 0 1 2.147 0l.873.72a3.376 3.376 0 0 0 4.293 0l.875-.72a1.69 1.69 0 0 1 2.147 0l.874.72a3.379 3.379 0 0 0 4.293 0l.873-.72a1.69 1.69 0 0 1 2.148 0l.874.72a3.376 3.376 0 0 0 4.293 0l.874-.72a1.69 1.69 0 0 1 2.146 0l.79.65a3.39 3.39 0 0 0 4.423-.114l2.07-1.891a.845.845 0 0 0-1.14-1.246l-2.069 1.893a1.696 1.696 0 0 1-2.211.056l-.79-.65a3.38 3.38 0 0 0-4.292 0l-.875.72a1.69 1.69 0 0 1-2.147 0l-.873-.72a3.382 3.382 0 0 0-4.294 0l-.874.72a1.69 1.69 0 0 1-2.147 0l-.874-.72a3.38 3.38 0 0 0-4.293 0l-.875.72a1.69 1.69 0 0 1-2.146 0l-.873-.72a3.38 3.38 0 0 0-4.293 0l-.875.72a1.69 1.69 0 0 1-2.147 0l-.874-.72a3.38 3.38 0 0 0-4.293 0l-.874.72a1.692 1.692 0 0 1-2.147 0l-.762-.628a3.38 3.38 0 0 0-4.46.146L5.265 53.26a.844.844 0 1 0 1.158 1.23zm9.827-21.709a.844.844 0 1 0 0 1.687.844.844 0 0 0 0-1.687zm14.063 0a.844.844 0 1 0 0 1.687.844.844 0 0 0 0-1.687zm7.593 0a.844.844 0 1 0 0 1.687.844.844 0 0 0 0-1.687zM23.663 27.72a.844.844 0 1 0 0 1.688.844.844 0 0 0 0-1.688z"/>
    </defs>
    <g fill="none" fill-rule="evenodd">
        <mask id="b" fill="#fff">
            <use xlink:href="#a"/>
        </mask>
        <use fill="#000" xlink:href="#a"/>
        <g fill="#101010" mask="url(#b)">
            <path d="M0 0h64v64H0z"/>
        </g>
    </g>
</svg>
