<?xml version="1.0" encoding="utf-8"?>
<!-- Generator: Adobe Illustrator 23.1.1, SVG Export Plug-In . SVG Version: 6.00 Build 0)  -->
<svg version="1.1" id="Layer_1" xmlns="http://www.w3.org/2000/svg" xmlns:xlink="http://www.w3.org/1999/xlink" x="0px" y="0px"
	 width="64px" height="64px" viewBox="0 0 64 64" enable-background="new 0 0 64 64" xml:space="preserve">
<g>
	<path id="eten_3_" fill-rule="evenodd" clip-rule="evenodd" d="M48.88,33.63c-0.47-0.02-0.86,0.35-0.87,0.81
		c-0.02,0.47,0.35,0.86,0.81,0.87c0.02,0,0.04,0,0.06,0c0.47-0.02,0.83-0.41,0.81-0.87C49.67,34,49.32,33.64,48.88,33.63z
		 M37.91,26.88c-0.47-0.02-0.86,0.35-0.87,0.81c-0.02,0.47,0.35,0.86,0.81,0.87c0.02,0,0.04,0,0.06,0c0.47-0.02,0.83-0.41,0.81-0.87
		C38.71,27.25,38.35,26.89,37.91,26.88z M42.83,28.56c-0.47-0.02-0.86,0.35-0.87,0.81c-0.02,0.47,0.35,0.86,0.81,0.87
		c0.02,0,0.04,0,0.06,0c0.47-0.02,0.83-0.41,0.81-0.87C43.63,28.93,43.27,28.58,42.83,28.56z M57.31,46.28
		c0,0.47-0.38,0.84-0.84,0.84H7.53c-0.47,0-0.84-0.38-0.84-0.84v-1.69c0-0.47,0.38-0.84,0.84-0.84h48.94c0.47,0,0.84,0.38,0.84,0.84
		L57.31,46.28L57.31,46.28z M56.47,42.06H7.53C6.13,42.07,5,43.2,5,44.59v1.69c0,1.4,1.13,2.53,2.53,2.53h48.94
		c1.4,0,2.53-1.13,2.53-2.53v-1.69C59,43.2,57.87,42.06,56.47,42.06z M57.12,61.17c-0.23,0.68-0.87,1.14-1.6,1.14H8.48
		c-0.72,0-1.37-0.46-1.6-1.14l-0.19-3.92h50.62L57.12,61.17L57.12,61.17z M57.31,55.56H6.69C5.76,55.56,5,56.32,5,57.25l0.2,4.19
		C5.58,62.95,6.93,64,8.48,64h47.04c1.55,0,2.9-1.05,3.27-2.56L59,57.25C59,56.32,58.24,55.56,57.31,55.56z M25.25,24.34h8.16
		l0.01,0c0.34,0.11,0.73,0.25,1.19,0.43c4.1,1.61,8.46,2.44,12.75,2.44c0.97,0,1.94-0.04,2.9-0.13l0.21-0.02
		c1.01,0.67,2.83,2.09,3.62,3.26c1.94,2.9,3.01,5.7,3.2,8.36H6.71C7.09,31.89,12.1,24.34,25.25,24.34z M35.79,21.38l9.7-0.79
		c0.46-0.04,0.81-0.44,0.77-0.91c0,0,0,0,0,0c-0.04-0.46-0.45-0.8-0.91-0.77L37,19.58l1.67-2.48l6.29-0.69
		c0.46-0.05,0.8-0.47,0.75-0.93c-0.05-0.46-0.47-0.8-0.93-0.75l-4.87,0.53l5.07-7.52l4.45,17.71c-4.73,0.32-9.63-0.46-14.21-2.25
		c-0.18-0.07-0.36-0.14-0.52-0.2L35.79,21.38L35.79,21.38z M44.1,3.39c-0.05-0.38,0.07-0.76,0.33-1.07c0.29-0.34,0.7-0.56,1.15-0.61
		c0.09-0.01,0.17-0.02,0.26-0.02c0.37,0,0.72,0.11,1.01,0.31c0.33,0.23,0.55,0.57,0.6,0.95c0.11,0.81-0.56,1.56-1.48,1.69
		c-0.45,0.07-0.9-0.04-1.27-0.29C44.37,4.12,44.15,3.78,44.1,3.39z M5.84,40.38h52.31c0.47,0,0.84-0.38,0.84-0.84c0,0,0,0,0,0
		c0-3.24-1.18-6.65-3.52-10.14c-0.96-1.43-3.06-3.09-4.3-3.87L46.34,6.27c1.76-0.31,3-1.87,2.78-3.55C49,1.87,48.53,1.1,47.81,0.61
		c-0.72-0.5-1.6-0.7-2.46-0.58c-0.86,0.11-1.66,0.54-2.22,1.2c-0.56,0.66-0.82,1.52-0.71,2.38c0.11,0.85,0.58,1.6,1.3,2.11
		c0.13,0.09,0.27,0.17,0.41,0.24l-6.58,9.77c-0.06,0.07-0.12,0.15-0.15,0.23l-4.51,6.7h-7.64C11.26,22.66,5,31.13,5,39.53
		C5,40,5.38,40.38,5.84,40.38z M6.42,54.49l1.96-1.85c0.62-0.58,1.57-0.61,2.23-0.07l0.76,0.63c1.25,1.03,3.05,1.03,4.29,0
		l0.87-0.72c0.62-0.51,1.52-0.51,2.15,0l0.87,0.72c1.25,1.03,3.05,1.03,4.29,0l0.87-0.72c0.62-0.51,1.52-0.51,2.15,0l0.87,0.72
		c1.25,1.03,3.05,1.03,4.29,0l0.88-0.72c0.62-0.51,1.52-0.51,2.15,0l0.87,0.72c1.25,1.03,3.05,1.03,4.29,0l0.87-0.72
		c0.62-0.51,1.52-0.51,2.15,0l0.87,0.72c1.25,1.03,3.05,1.03,4.29,0l0.87-0.72c0.62-0.51,1.52-0.51,2.15,0l0.79,0.65
		c1.3,1.06,3.18,1.01,4.42-0.11l2.07-1.89c0.33-0.33,0.34-0.86,0.01-1.19c-0.31-0.31-0.81-0.34-1.15-0.05l-2.07,1.89
		c-0.62,0.56-1.56,0.59-2.21,0.06l-0.79-0.65c-1.25-1.02-3.04-1.02-4.29,0l-0.88,0.72c-0.62,0.51-1.52,0.51-2.15,0l-0.87-0.72
		c-1.25-1.03-3.05-1.03-4.29,0l-0.87,0.72c-0.62,0.51-1.52,0.51-2.15,0l-0.87-0.72c-1.25-1.03-3.05-1.03-4.29,0l-0.88,0.72
		c-0.62,0.51-1.52,0.51-2.15,0l-0.87-0.72c-1.25-1.03-3.05-1.03-4.29,0l-0.88,0.72c-0.62,0.51-1.52,0.51-2.15,0l-0.87-0.72
		c-1.25-1.03-3.05-1.03-4.29,0L14.6,51.9c-0.62,0.51-1.52,0.51-2.15,0l-0.76-0.63c-1.31-1.08-3.22-1.02-4.46,0.15l-1.96,1.85
		c-0.34,0.32-0.36,0.85-0.04,1.19C5.55,54.79,6.08,54.81,6.42,54.49z M16.25,32.78c-0.47-0.02-0.86,0.35-0.87,0.81
		c-0.02,0.47,0.35,0.86,0.81,0.87c0.02,0,0.04,0,0.06,0c0.47-0.02,0.83-0.41,0.81-0.87C17.05,33.15,16.69,32.8,16.25,32.78z
		 M30.31,32.78c-0.47-0.02-0.86,0.35-0.87,0.81c-0.02,0.47,0.35,0.86,0.81,0.87c0.02,0,0.04,0,0.06,0c0.47-0.02,0.83-0.41,0.81-0.87
		C31.11,33.15,30.76,32.8,30.31,32.78z M37.91,32.78c-0.47-0.02-0.86,0.35-0.87,0.81c-0.02,0.47,0.35,0.86,0.81,0.87
		c0.02,0,0.04,0,0.06,0c0.47-0.02,0.83-0.41,0.81-0.87C38.71,33.15,38.35,32.8,37.91,32.78z M23.66,27.72
		c-0.47,0-0.84,0.38-0.84,0.84c0,0.47,0.38,0.84,0.84,0.84c0,0,0,0,0,0c0.47,0,0.84-0.38,0.84-0.84
		C24.51,28.1,24.13,27.72,23.66,27.72z"/>
</g>
</svg>
