<svg xmlns="http://www.w3.org/2000/svg" xmlns:xlink="http://www.w3.org/1999/xlink" width="24" height="24" viewBox="0 0 24 24"><defs><mask id="a" x="0" y="0" width="24" height="24" maskUnits="userSpaceOnUse"><path d="M12,0A12,12,0,1,0,24,12,12,12,0,0,0,12,0Zm2.84,8.29H13c-.21,0-.45.28-.45.66v1.3h2.25l-.34,1.86H12.59v5.57H10.46V12.11H8.53V10.25h1.93V9.16A2.68,2.68,0,0,1,13,6.32h1.8v2Z" fill="#fff" fill-rule="evenodd"/></mask></defs><title>Asset 58</title><path d="M12,0A12,12,0,1,0,24,12,12,12,0,0,0,12,0Zm2.84,8.29H13c-.21,0-.45.28-.45.66v1.3h2.25l-.34,1.86H12.59v5.57H10.46V12.11H8.53V10.25h1.93V9.16A2.68,2.68,0,0,1,13,6.32h1.8v2Z"/><g mask="url(#a)"><path d="M0,0H24V24H0Z" fill="#3b5998" fill-rule="evenodd"/></g></svg>