<?xml version="1.0" encoding="utf-8"?>
<!-- Generator: Adobe Illustrator 23.1.1, SVG Export Plug-In . SVG Version: 6.00 Build 0)  -->
<svg version="1.1" id="Layer_1" xmlns="http://www.w3.org/2000/svg" xmlns:xlink="http://www.w3.org/1999/xlink" x="0px" y="0px"
	 width="32px" height="32px" viewBox="0 0 32 32" enable-background="new 0 0 32 32" xml:space="preserve">
<path id="a-phone_2_" fill-rule="evenodd" clip-rule="evenodd" d="M30.22,3.93H1.78C0.8,3.93,0,4.72,0,5.71v21.33
	c0,0.98,0.8,1.78,1.78,1.78h28.45c0.98,0,1.78-0.8,1.78-1.78V5.71C32,4.72,31.21,3.93,30.22,3.93z M21.78,10.15
	c1.23,0,2.22,1,2.22,2.22s-1,2.22-2.22,2.22s-2.22-1-2.22-2.22S20.55,10.15,21.78,10.15z M5.33,23.48l5.89-13.55l6.7,10.85
	l5.74-2.85l3,5.55H5.33z"/>
</svg>
