<?xml version="1.0" encoding="UTF-8"?>
<svg width="32px" height="32px" viewBox="0 0 32 32" version="1.1" xmlns="http://www.w3.org/2000/svg" xmlns:xlink="http://www.w3.org/1999/xlink">
    <!-- Generator: Sketch 59.1 (86144) - https://sketch.com -->
    <title>icon/images</title>
    <desc>Created with Sketch.</desc>
    <defs>
        <path d="M30.2235707,4 L1.7778571,4 C0.794702123,4 0,4.79470212 0,5.7778571 L0,27.1121423 C0,28.0935194 0.794702123,28.8899994 1.7778571,28.8899994 L30.2235707,28.8899994 C31.2067257,28.8899994 32.0014278,28.0935194 32.0014278,27.1121423 L32.0014278,5.7778571 C32.0014278,4.79647998 31.2067257,4 30.2235707,4 Z M21.7787495,10.2224998 C23.0054709,10.2224998 24.0010708,11.2180998 24.0010708,12.4448212 C24.0010708,13.6715426 23.0054709,14.6671426 21.7787495,14.6671426 C20.5520281,14.6671426 19.5564281,13.6715426 19.5564281,12.4448212 C19.5564281,11.2180998 20.5520281,10.2224998 21.7787495,10.2224998 Z M5.3335713,23.5564281 L11.2253897,10.0109349 L17.9261331,20.8594189 L23.6703894,18.0059582 L26.6678565,23.5564281 L5.3335713,23.5564281 Z" id="path-1"></path>
    </defs>
    <g id="icon/images" stroke="none" stroke-width="1" fill="none" fill-rule="evenodd">
        <mask id="mask-2" fill="white">
            <use xlink:href="#path-1"></use>
        </mask>
        <use id="Mask" fill="#000000" fill-rule="nonzero" xlink:href="#path-1"></use>
        <g id="color/1-text/1-black" mask="url(#mask-2)" fill="#101010">
            <rect id="Rectangle" x="0" y="0" width="32" height="32"></rect>
        </g>
    </g>
</svg>