<svg xmlns="http://www.w3.org/2000/svg" xmlns:xlink="http://www.w3.org/1999/xlink" width="32" height="32" viewBox="0 0 32 32"><defs><mask id="a" x="0" y="0" width="32" height="32" maskUnits="userSpaceOnUse"><path d="M30.22,3.93H1.78A1.78,1.78,0,0,0,0,5.71V27a1.78,1.78,0,0,0,1.78,1.78H30.22A1.78,1.78,0,0,0,32,27V5.71A1.77,1.77,0,0,0,30.22,3.93Zm-8.44,6.22a2.23,2.23,0,1,1-2.23,2.22A2.22,2.22,0,0,1,21.78,10.15ZM5.33,23.48l5.9-13.54,6.7,10.85,5.74-2.86,3,5.55Z" fill="#fff" fill-rule="evenodd"/></mask></defs><title>Asset 73</title><g mask="url(#a)"><path d="M0,0H32V32H0Z" fill="#101010" fill-rule="evenodd"/></g></svg>