<svg xmlns="http://www.w3.org/2000/svg" width="65" height="65" viewBox="0 0 65 65"><title>Asset 88</title><path d="M.5.5h64v64H.5Z" fill="none" stroke="#fff" stroke-miterlimit="10" fill-rule="evenodd"/><path d="M47.89,41.45a1.29,1.29,0,1,1,1.31-1.29A1.3,1.3,0,0,1,47.89,41.45ZM32.5,43.92c-3.29,0-6-3.4-6-7.57s2.68-7.58,6-7.58,6,3.4,6,7.58S35.79,43.92,32.5,43.92ZM18,41.45a1.29,1.29,0,1,1,1.31-1.29A1.3,1.3,0,0,1,18,41.45Zm45.63-4.26H40.15q0-.42,0-.84a10.36,10.36,0,0,0-1.87-6l6.67,0a.83.83,0,0,0,.85-.84h0a.84.84,0,0,0-.85-.84h0l-8.21,0h0a6.91,6.91,0,0,0-3.4-1.49V20.84A.84.84,0,0,0,32.5,20h0a.84.84,0,0,0-.85.84h0v6.31a6.87,6.87,0,0,0-3.37,1.47l-8.15,0a.86.86,0,0,0-.86.84h0a.86.86,0,0,0,.86.84h6.56a10.39,10.39,0,0,0-1.87,6,7.87,7.87,0,0,0,0,.84H1.35A.84.84,0,0,0,.5,38h0a.85.85,0,0,0,.85.84h14A2.88,2.88,0,0,0,15,40.16a3,3,0,0,0,6,0,3,3,0,0,0-.31-1.29h4.39C26,42.74,29,45.6,32.5,45.6s6.47-2.86,7.38-6.74h5.31a2.89,2.89,0,0,0-.32,1.29,3,3,0,0,0,6,0,3,3,0,0,0-.31-1.29h13A.85.85,0,0,0,64.5,38h0a.84.84,0,0,0-.85-.84ZM28.9,32.27a.85.85,0,1,0,0,1.69h6.83a.85.85,0,0,0,.85-.84h0a.85.85,0,0,0-.85-.85H28.9Z" fill-rule="evenodd"/></svg>