<svg xmlns="http://www.w3.org/2000/svg" width="64" height="25.6" viewBox="0 0 64 25.6"><title>incentive</title><path d="M63.15,36.19H39.65c0-.28,0-.56,0-.84a10.36,10.36,0,0,0-1.87-6l6.67,0a.83.83,0,0,0,.85-.84h0a.84.84,0,0,0-.85-.84h0l-8.21,0h0a6.91,6.91,0,0,0-3.4-1.49V19.84A.84.84,0,0,0,32,19h0a.84.84,0,0,0-.85.84v6.31a7,7,0,0,0-3.37,1.47l-8.16,0a.84.84,0,1,0,0,1.68h6.56a10.39,10.39,0,0,0-1.87,6q0,.42,0,.84H.85A.84.84,0,0,0,0,37H0a.85.85,0,0,0,.85.84h14a2.88,2.88,0,0,0-.31,1.29,3,3,0,0,0,6,0,3,3,0,0,0-.31-1.29h4.39c.91,3.88,3.87,6.74,7.38,6.74s6.47-2.86,7.38-6.74h5.3a3,3,0,1,0,5.73,1.29,3,3,0,0,0-.31-1.29h13a.84.84,0,1,0,0-1.68ZM17.52,40.45a1.29,1.29,0,1,1,1.31-1.29A1.3,1.3,0,0,1,17.52,40.45ZM32,42.92c-3.29,0-6-3.4-6-7.57s2.68-7.58,6-7.58,6,3.4,6,7.58S35.29,42.92,32,42.92Zm15.39-2.47a1.29,1.29,0,1,1,1.31-1.29A1.3,1.3,0,0,1,47.39,40.45ZM35.23,31.28H28.4a.84.84,0,0,0-.85.83.85.85,0,0,0,.85.85h6.83a.85.85,0,0,0,.85-.84h0a.83.83,0,0,0-.85-.84Z" transform="translate(0 -19)"/></svg>