<svg xmlns="http://www.w3.org/2000/svg" xmlns:xlink="http://www.w3.org/1999/xlink" width="64" height="64" viewBox="0 0 64 64">
    <defs>
        <path id="a" d="M47.39 40.453c-.722 0-1.31-.58-1.31-1.291 0-.714.588-1.292 1.31-1.292.723 0 1.31.578 1.31 1.292 0 .712-.587 1.291-1.31 1.291zM32 42.917c-3.294 0-5.973-3.397-5.973-7.571 0-4.175 2.68-7.572 5.973-7.572 3.293 0 5.973 3.397 5.973 7.572 0 4.174-2.68 7.571-5.973 7.571zm-14.477-2.464c-.722 0-1.31-.58-1.31-1.291 0-.714.588-1.292 1.31-1.292.724 0 1.31.578 1.31 1.292 0 .712-.586 1.291-1.31 1.291zm45.624-4.266H39.645c.02-.278.035-.557.035-.841 0-2.304-.707-4.409-1.866-6.03l6.668-.013a.846.846 0 0 0 .851-.843.848.848 0 0 0-.853-.84h-.002l-8.213.018c-.007 0-.012.003-.019.003-.993-.798-2.149-1.323-3.393-1.49v-6.31A.847.847 0 0 0 32 19a.847.847 0 0 0-.853.841v6.31c-1.233.166-2.378.684-3.366 1.47l-8.156.017a.847.847 0 0 0-.852.842c.001.464.383.84.854.84h.001l6.565-.013c-1.163 1.623-1.873 3.731-1.873 6.039 0 .284.014.563.035.841H.853a.847.847 0 0 0-.853.841c0 .464.381.842.853.842h13.965a2.919 2.919 0 0 0-.311 1.292c0 1.64 1.353 2.974 3.016 2.974 1.664 0 3.018-1.334 3.018-2.974 0-.465-.119-.9-.312-1.292h4.354c.012 0 .022-.006.034-.007C25.529 41.745 28.49 44.6 32 44.6s6.47-2.855 7.383-6.737c.012 0 .022.007.033.007h5.269a2.919 2.919 0 0 0-.312 1.292c0 1.64 1.354 2.974 3.017 2.974 1.664 0 3.017-1.334 3.017-2.974 0-.465-.118-.9-.311-1.292h13.05a.848.848 0 0 0 .854-.842.847.847 0 0 0-.853-.841zm-34.744-4.912a.848.848 0 0 0-.853.84c0 .466.382.842.853.842h6.827a.847.847 0 0 0 .853-.841.847.847 0 0 0-.853-.841h-6.827z"/>
    </defs>
    <g fill="none" fill-rule="evenodd">
        <mask id="b" fill="#fff">
            <use xlink:href="#a"/>
        </mask>
        <use fill="#000" xlink:href="#a"/>
        <g fill="#101010" mask="url(#b)">
            <path d="M-3-3h70v70H-3z"/>
        </g>
    </g>
</svg>
