<svg xmlns="http://www.w3.org/2000/svg" xmlns:xlink="http://www.w3.org/1999/xlink" width="32" height="32" viewBox="0 0 32 32">
    <defs>
        <path id="a" d="M28.807 13.369L16.31 3.112a.485.485 0 0 0-.62 0L3.193 13.369c-.375.307-.167.935.309.935h2.324V28.54c0 .254.217.46.485.46h5.813a.473.473 0 0 0 .485-.46v-8.266c0-.253.217-.459.484-.459h5.814c.267 0 .484.206.484.46v8.265c0 .254.217.46.485.46h5.804c.273 0 .494-.21.494-.468V14.304h2.324c.475 0 .684-.628.31-.935"/>
    </defs>
    <g fill="none" fill-rule="evenodd">
        <mask id="b" fill="#fff">
            <use xlink:href="#a"/>
        </mask>
        <use fill="#000" xlink:href="#a"/>
        <g fill="#101010" mask="url(#b)">
            <path d="M0 0h32v32H0z"/>
        </g>
    </g>
</svg>
