<?xml version="1.0" encoding="utf-8"?>
<!-- Generator: Adobe Illustrator 23.1.1, SVG Export Plug-In . SVG Version: 6.00 Build 0)  -->
<svg version="1.1" id="Layer_1" xmlns="http://www.w3.org/2000/svg" xmlns:xlink="http://www.w3.org/1999/xlink" x="0px" y="0px"
	 width="32px" height="32px" viewBox="0 0 32 32" enable-background="new 0 0 32 32" xml:space="preserve">
<path id="a_2_" fill-rule="evenodd" clip-rule="evenodd" d="M28.44,12.99L15.94,2.73c-0.18-0.15-0.44-0.15-0.62,0L2.83,12.99
	c-0.38,0.31-0.17,0.94,0.31,0.94h2.32v14.24c0,0.25,0.22,0.46,0.49,0.46h5.81c0.26,0.01,0.48-0.2,0.48-0.46V19.9
	c0-0.25,0.22-0.46,0.48-0.46h5.81c0.27,0,0.48,0.21,0.48,0.46v8.26c0,0.25,0.22,0.46,0.49,0.46h5.8c0.27,0,0.49-0.21,0.49-0.47
	V13.93h2.32C28.61,13.93,28.81,13.3,28.44,12.99"/>
</svg>
