<svg xmlns="http://www.w3.org/2000/svg" xmlns:xlink="http://www.w3.org/1999/xlink" width="32" height="32" viewBox="0 0 32 32"><defs><mask id="a" x="0" y="0" width="32" height="32" maskUnits="userSpaceOnUse"><path d="M31.87,15.89,23.63,9.3a.35.35,0,0,0-.41,0L15,15.89a.34.34,0,0,0,.2.6h1.32V26.72a.33.33,0,0,0,.33.33h4a.33.33,0,0,0,.33-.33V20.78a.33.33,0,0,1,.33-.33h4a.33.33,0,0,1,.33.33v5.94a.33.33,0,0,0,.33.33h4a.34.34,0,0,0,.34-.34V16.49h1.32A.34.34,0,0,0,31.87,15.89ZM8.37,13.8H9.61a.49.49,0,0,0,.4-.68L6.34,4.05a.42.42,0,0,0-.8,0L1.86,13.12a.49.49,0,0,0,.4.68H3.5L0,21.84a.44.44,0,0,0,.39.63H4.57V26A1.08,1.08,0,0,0,5.65,27h.58A1.08,1.08,0,0,0,7.31,26V22.47h4.14a.45.45,0,0,0,.39-.63l-3.46-8Z" fill="#fff" fill-rule="evenodd"/></mask></defs><title>Asset 71</title><g mask="url(#a)"><path d="M0,0H32V32H0Z" fill="#101010" fill-rule="evenodd"/></g></svg>