<svg xmlns="http://www.w3.org/2000/svg" xmlns:xlink="http://www.w3.org/1999/xlink" width="32" height="32" viewBox="0 0 32 32"><defs><mask id="a" x="0" y="0" width="32" height="32" maskUnits="userSpaceOnUse"><path d="M28.44,13,15.94,2.73a.48.48,0,0,0-.62,0L2.83,13a.53.53,0,0,0,.3.94H5.46V28.16a.47.47,0,0,0,.48.46h5.82a.47.47,0,0,0,.48-.46V19.9a.47.47,0,0,1,.49-.46h5.81a.46.46,0,0,1,.48.46v8.26a.47.47,0,0,0,.49.46h5.8a.48.48,0,0,0,.5-.47V13.93h2.32a.53.53,0,0,0,.31-.94" fill="#fff" fill-rule="evenodd"/></mask></defs><title>Asset 70</title><g mask="url(#a)"><path d="M0,0H32V32H0Z" fill="#101010" fill-rule="evenodd"/></g></svg>