<svg xmlns="http://www.w3.org/2000/svg" xmlns:xlink="http://www.w3.org/1999/xlink" width="32" height="32" viewBox="0 0 32 32">
    <defs>
        <path id="location" d="M16.192 15.174c1.102 0 2.041-.388 2.817-1.165.777-.776 1.165-1.715 1.165-2.817 0-1.101-.388-2.04-1.165-2.816-.776-.777-1.715-1.165-2.817-1.165-1.101 0-2.04.388-2.816 1.165-.777.776-1.165 1.715-1.165 2.816 0 1.102.388 2.041 1.165 2.817.776.777 1.715 1.165 2.816 1.165zm0-15.174c3.105 0 5.747 1.09 7.925 3.268 2.179 2.178 3.268 4.82 3.268 7.924 0 1.553-.388 3.33-1.164 5.334a32.879 32.879 0 0 1-2.817 5.634 111.96 111.96 0 0 1-3.268 4.92c-1.077 1.527-1.99 2.742-2.742 3.643L16.192 32c-.3-.35-.7-.814-1.201-1.39-.501-.576-1.403-1.727-2.705-3.455a57.894 57.894 0 0 1-3.417-5.033c-.977-1.627-1.866-3.468-2.667-5.521C5.4 14.548 5 12.745 5 11.192c0-3.104 1.09-5.746 3.268-7.924C10.446 1.089 13.088 0 16.192 0z"/>
    </defs>
    <g fill="none" fill-rule="evenodd">
        <mask id="location-id" fill="#fff">
            <use xlink:href="#location"/>
        </mask>
        <use fill="#000" fill-rule="nonzero" xlink:href="#location"/>
        <g fill="#101010" mask="url(#location-id)">
            <path d="M0 0h32v32H0z"/>
        </g>
    </g>
</svg>
