<?xml version="1.0" encoding="utf-8"?>
<!-- Generator: Adobe Illustrator 23.1.1, SVG Export Plug-In . SVG Version: 6.00 Build 0)  -->
<svg version="1.1" id="Layer_1" xmlns="http://www.w3.org/2000/svg" xmlns:xlink="http://www.w3.org/1999/xlink" x="0px" y="0px"
	 width="22.38px" height="31.99px" viewBox="0 0 22.38 31.99" enable-background="new 0 0 22.38 31.99" xml:space="preserve">
<path d="M11.07,15.17c1.1,0.03,2.05-0.33,2.85-1.08c0.8-0.75,1.22-1.68,1.25-2.78c0.03-1.1-0.33-2.05-1.08-2.85
	c-0.75-0.8-1.68-1.22-2.78-1.25c-1.1-0.03-2.05,0.33-2.85,1.08c-0.8,0.75-1.22,1.68-1.25,2.78c-0.03,1.1,0.33,2.05,1.08,2.85
	C9.04,14.72,9.97,15.14,11.07,15.17z M11.53,0.01c3.1,0.09,5.71,1.26,7.82,3.5c2.11,2.24,3.12,4.92,3.03,8.02
	c-0.05,1.55-0.49,3.32-1.32,5.3c-0.82,1.94-1.81,3.8-2.98,5.55c-1.1,1.64-2.23,3.24-3.41,4.82c-1.12,1.49-2.07,2.68-2.85,3.56
	l-1.24,1.24c-0.29-0.36-0.68-0.83-1.16-1.43c-0.48-0.59-1.35-1.77-2.6-3.53c-1.18-1.65-2.27-3.37-3.26-5.13
	c-0.93-1.66-1.76-3.52-2.5-5.6C0.3,14.22-0.04,12.41,0,10.86c0.09-3.1,1.26-5.71,3.5-7.82C5.75,0.92,8.42-0.09,11.53,0.01z"/>
</svg>
