<svg xmlns="http://www.w3.org/2000/svg" width="22.38" height="31.99" viewBox="0 0 22.38 31.99"><title>Asset 69</title><path d="M11.07,15.17a3.78,3.78,0,0,0,2.85-1.08,3.82,3.82,0,0,0,1.25-2.78,4,4,0,0,0-3.86-4.1,4,4,0,0,0-4.1,3.86,4,4,0,0,0,3.86,4.1ZM11.53,0a10.78,10.78,0,0,1,7.82,3.5,10.82,10.82,0,0,1,3,8,15.25,15.25,0,0,1-1.32,5.3,33.25,33.25,0,0,1-3,5.54q-1.63,2.46-3.41,4.82c-1.13,1.5-2.07,2.68-2.85,3.56L10.57,32,9.41,30.57C8.92,30,8.06,28.8,6.81,27A57.08,57.08,0,0,1,3.54,21.9,37.37,37.37,0,0,1,1,16.3a15.34,15.34,0,0,1-1-5.44A10.85,10.85,0,0,1,3.51,3,10.75,10.75,0,0,1,11.53,0Z"/></svg>