<svg xmlns="http://www.w3.org/2000/svg" xmlns:xlink="http://www.w3.org/1999/xlink" width="32" height="32" viewBox="0 0 32 32">
    <defs>
        <path id="a" d="M31.953 23.853l-4.181-9.715h1.496c.374 0 .628-.431.484-.822l-4.44-10.95c-.18-.488-.79-.488-.97 0l-4.439 10.95c-.144.391.11.822.485.822h1.495l-4.181 9.715c-.155.36.095.768.47.768h5v4.413c0 .61.494 1.104 1.104 1.104h1.103c.61 0 1.103-.494 1.103-1.104v-4.413h5.001c.375 0 .625-.408.47-.768zm-21.836-9.715h1.495c.375 0 .629-.431.485-.822l-4.44-10.95c-.18-.488-.79-.488-.97 0l-4.439 10.95c-.144.391.11.822.484.822h1.496L.047 23.853c-.155.36.095.768.47.768h5v4.413c0 .61.494 1.104 1.103 1.104h1.104c.61 0 1.103-.494 1.103-1.104v-4.413h5.001c.375 0 .625-.408.47-.768l-4.181-9.715z"/>
    </defs>
    <g fill="none" fill-rule="evenodd">
        <mask id="b" fill="#fff">
            <use xlink:href="#a"/>
        </mask>
        <use fill="#000" xlink:href="#a"/>
        <g fill="#101010" mask="url(#b)">
            <path d="M0 0h32v32H0z"/>
        </g>
    </g>
</svg>
