<svg xmlns="http://www.w3.org/2000/svg" xmlns:xlink="http://www.w3.org/1999/xlink" width="32" height="32" viewBox="0 0 32 32"><defs><mask id="a" x="-0.04" y="0" width="32.04" height="32" maskUnits="userSpaceOnUse"><path d="M31.91,24.05l-4.18-9.71h1.5a.59.59,0,0,0,.48-.83L25.27,2.56a.51.51,0,0,0-1,0l-4.44,11a.6.6,0,0,0,.49.83h1.49l-4.18,9.71a.55.55,0,0,0,.47.77h5v4.41a1.11,1.11,0,0,0,1.11,1.11h1.1a1.11,1.11,0,0,0,1.1-1.11V24.82h5A.54.54,0,0,0,31.91,24.05ZM10.08,14.34h1.49a.6.6,0,0,0,.49-.83L7.62,2.56a.51.51,0,0,0-1,0l-4.44,11a.59.59,0,0,0,.48.83h1.5L0,24.05a.54.54,0,0,0,.47.77h5v4.41a1.11,1.11,0,0,0,1.1,1.11h1.1a1.11,1.11,0,0,0,1.11-1.11V24.82h5a.55.55,0,0,0,.47-.77Z" fill="#fff" fill-rule="evenodd"/></mask></defs><title>Asset 66</title><g mask="url(#a)"><path d="M0,0H32V32H0Z" fill="#101010" fill-rule="evenodd"/></g></svg>