<?xml version="1.0" encoding="utf-8"?>
<!-- Generator: Adobe Illustrator 23.1.1, SVG Export Plug-In . SVG Version: 6.00 Build 0)  -->
<svg version="1.1" id="Layer_1" xmlns="http://www.w3.org/2000/svg" xmlns:xlink="http://www.w3.org/1999/xlink" x="0px" y="0px"
	 width="32px" height="32px" viewBox="0 0 32 32" enable-background="new 0 0 32 32" xml:space="preserve">
<path id="a_2_" fill-rule="evenodd" clip-rule="evenodd" d="M31.91,24.05l-4.18-9.72h1.5c0.37,0,0.63-0.43,0.48-0.82L25.27,2.56
	c-0.18-0.49-0.79-0.49-0.97,0l-4.44,10.95c-0.14,0.39,0.11,0.82,0.49,0.82h1.5l-4.18,9.72c-0.16,0.36,0.09,0.77,0.47,0.77h5v4.41
	c0,0.61,0.49,1.1,1.1,1.1h1.1c0.61,0,1.1-0.49,1.1-1.1v-4.41h5C31.82,24.82,32.07,24.41,31.91,24.05z M10.08,14.34h1.49
	c0.38,0,0.63-0.43,0.48-0.82L7.62,2.56c-0.18-0.49-0.79-0.49-0.97,0L2.21,13.51c-0.14,0.39,0.11,0.82,0.48,0.82h1.5l-4.18,9.72
	c-0.16,0.36,0.09,0.77,0.47,0.77h5v4.41c0,0.61,0.49,1.1,1.1,1.1h1.1c0.61,0,1.1-0.49,1.1-1.1v-4.41h5c0.38,0,0.62-0.41,0.47-0.77
	C14.26,24.05,10.08,14.34,10.08,14.34z"/>
</svg>
