<svg xmlns="http://www.w3.org/2000/svg" xmlns:xlink="http://www.w3.org/1999/xlink" width="32" height="32" viewBox="0 0 32 32">
    <defs>
        <path id="a" d="M22.932 24.715V4.357H9.86v20.358h13.072zm-6.536 5.787c.59 0 1.1-.215 1.532-.647.43-.43.646-.942.646-1.532 0-.59-.215-1.1-.646-1.532-.432-.43-.942-.646-1.532-.646-.59 0-1.101.215-1.532.646-.431.432-.647.942-.647 1.532 0 .59.216 1.101.647 1.532.431.432.942.647 1.532.647zM22.25 0c.999 0 1.85.363 2.553 1.09.704.726 1.056 1.588 1.056 2.587v24.646c0 .999-.352 1.861-1.056 2.588-.703.726-1.554 1.089-2.553 1.089H10.61c-1 0-1.85-.363-2.554-1.09C7.352 30.185 7 29.323 7 28.324V3.677c0-.999.352-1.861 1.055-2.588C8.76.363 9.61 0 10.61 0H22.25z"/>
    </defs>
    <g fill="none" fill-rule="evenodd">
        <mask id="b" fill="#fff">
            <use xlink:href="#a"/>
        </mask>
        <use fill="#000" fill-rule="nonzero" xlink:href="#a"/>
        <g fill="#101010" mask="url(#b)">
            <path d="M0 0h32v32H0z"/>
        </g>
    </g>
</svg>
