<svg xmlns="http://www.w3.org/2000/svg" xmlns:xlink="http://www.w3.org/1999/xlink" width="32.13" height="33" viewBox="0 0 32.13 33"><defs><mask id="a" x="0" y="0" width="32.13" height="33.04" maskUnits="userSpaceOnUse"><path d="M22.56,25.75V5.4H9.49V25.75ZM16,31.54a2.06,2.06,0,0,0,1.53-.65,2.16,2.16,0,1,0-3.06-3.06,2.13,2.13,0,0,0,0,3.06A2.06,2.06,0,0,0,16,31.54ZM21.88,1a3.43,3.43,0,0,1,2.56,1.09,3.59,3.59,0,0,1,1,2.59V29.36a3.61,3.61,0,0,1-1,2.59A3.43,3.43,0,0,1,21.88,33H10.24A3.4,3.4,0,0,1,7.69,32a3.58,3.58,0,0,1-1.06-2.59V4.72A3.56,3.56,0,0,1,7.69,2.13,3.4,3.4,0,0,1,10.24,1Z" fill="#fff" fill-rule="evenodd"/></mask></defs><title>Asset 65</title><g mask="url(#a)"><path d="M0,1,32.13,0V32L0,33Z" fill="#101010" fill-rule="evenodd"/></g></svg>