<svg xmlns="http://www.w3.org/2000/svg" xmlns:xlink="http://www.w3.org/1999/xlink" width="32" height="32" viewBox="0 0 32 32"><defs><mask id="a" x="0" y="-0.19" width="32" height="32.19" maskUnits="userSpaceOnUse"><path d="M7.56,6.79h.52a3.24,3.24,0,0,0,3.23-3.23V3A3.25,3.25,0,0,0,8.08-.19H7.56A3.23,3.23,0,0,0,4.33,3v.52A3.23,3.23,0,0,0,7.56,6.79Zm16.29,0h.52A3.24,3.24,0,0,0,27.6,3.56V3A3.25,3.25,0,0,0,24.37-.19h-.52A3.24,3.24,0,0,0,20.62,3v.52a3.23,3.23,0,0,0,3.23,3.23Zm-13.25,2H5a3,3,0,0,0-3,3H2v10a1.52,1.52,0,0,0,1.51,1.52h.82v6.48a1.94,1.94,0,0,0,1.94,1.95H9.35a2,2,0,0,0,2-1.94h0V23.37h.81a1.52,1.52,0,0,0,1.52-1.51v-10a3,3,0,0,0-3-3Zm16.3,0H21.32a3,3,0,0,0-3,3h0v10a1.51,1.51,0,0,0,1.51,1.51h.82v6.49a2,2,0,0,0,1.94,1.95h3.09a2,2,0,0,0,2-1.94h0V23.37h.82a1.52,1.52,0,0,0,1.51-1.51v-10a3,3,0,0,0-3-3Z" fill="#fff" fill-rule="evenodd"/></mask></defs><title>Asset 63</title><g mask="url(#a)"><path d="M0,0H32V32H0Z" fill="#101010" fill-rule="evenodd"/></g></svg>