<svg xmlns="http://www.w3.org/2000/svg" xmlns:xlink="http://www.w3.org/1999/xlink" width="32" height="32" viewBox="0 0 32 32">
    <defs>
        <path id="a-rooms" d="M7.556 6.982h.524a3.24 3.24 0 0 0 3.23-3.23V3.23A3.24 3.24 0 0 0 8.08 0h-.524a3.24 3.24 0 0 0-3.229 3.23v.523a3.24 3.24 0 0 0 3.23 3.229zm16.291 0h.524a3.24 3.24 0 0 0 3.229-3.23V3.23A3.24 3.24 0 0 0 24.37 0h-.523a3.24 3.24 0 0 0-3.229 3.23v.523a3.24 3.24 0 0 0 3.23 3.229zM10.605 9.018H5.031A3.031 3.031 0 0 0 2 12.05v10.002c.003.834.679 1.51 1.513 1.513h.814v6.481A1.95 1.95 0 0 0 6.282 32h3.072a1.95 1.95 0 0 0 1.955-1.955v-6.481h.815a1.519 1.519 0 0 0 1.512-1.513V12.049a3.031 3.031 0 0 0-3.03-3.03zm16.291 0h-5.574a3.031 3.031 0 0 0-3.031 3.031v10.002c.003.834.679 1.51 1.513 1.513h.814v6.481A1.95 1.95 0 0 0 22.573 32h3.072a1.95 1.95 0 0 0 1.955-1.955v-6.481h.815a1.519 1.519 0 0 0 1.512-1.513V12.049a3.031 3.031 0 0 0-3.031-3.03z"/>
    </defs>
    <g fill="none" fill-rule="evenodd">
        <mask id="b-rooms" fill="#fff">
            <use xlink:href="#a-rooms"/>
        </mask>
        <use fill="#000" fill-rule="nonzero" xlink:href="#a-rooms"/>
        <g fill="#101010" mask="url(#b-rooms)">
            <path d="M0 0h32v32H0z"/>
        </g>
    </g>
</svg>
