<?xml version="1.0" encoding="utf-8"?>
<!-- Generator: Adobe Illustrator 23.1.1, SVG Export Plug-In . SVG Version: 6.00 Build 0)  -->
<svg version="1.1" id="Layer_1" xmlns="http://www.w3.org/2000/svg" xmlns:xlink="http://www.w3.org/1999/xlink" x="0px" y="0px"
	 width="32px" height="32px" viewBox="0 0 32 32" enable-background="new 0 0 32 32" xml:space="preserve">
<path id="a-rooms_2_" fill-rule="evenodd" clip-rule="evenodd" d="M7.35,6.98h0.52c1.78-0.01,3.22-1.45,3.23-3.23V3.23
	C11.1,1.45,9.65,0.01,7.87,0H7.35C5.57,0.01,4.12,1.45,4.12,3.23v0.52C4.13,5.53,5.57,6.98,7.35,6.98L7.35,6.98z M23.64,6.98h0.52
	c1.78-0.01,3.22-1.45,3.23-3.23V3.23C27.39,1.45,25.94,0.01,24.16,0h-0.52c-1.78,0.01-3.22,1.45-3.23,3.23v0.52
	C20.42,5.53,21.86,6.98,23.64,6.98L23.64,6.98z M10.4,9.02H4.82c-1.67,0-3.03,1.36-3.03,3.03c0,0,0,0,0,0v10
	c0,0.83,0.68,1.51,1.51,1.51h0.81v6.48c0,1.08,0.87,1.95,1.95,1.95c0,0,0.01,0,0.01,0h3.07c1.08,0,1.95-0.87,1.95-1.94
	c0,0,0-0.01,0-0.01v-6.48h0.81c0.83,0,1.51-0.68,1.51-1.51v-10C13.43,10.38,12.07,9.02,10.4,9.02L10.4,9.02z M26.69,9.02h-5.57
	c-1.67,0-3.03,1.36-3.03,3.03l0,0v10c0,0.83,0.68,1.51,1.51,1.51h0.81v6.48c0,1.08,0.87,1.95,1.94,1.96c0,0,0.01,0,0.01,0h3.07
	c1.08,0,1.95-0.87,1.95-1.94c0,0,0-0.01,0-0.01v-6.48h0.82c0.83,0,1.51-0.68,1.51-1.51v-10C29.72,10.38,28.36,9.02,26.69,9.02
	L26.69,9.02z"/>
</svg>
