<svg xmlns="http://www.w3.org/2000/svg" xmlns:xlink="http://www.w3.org/1999/xlink" width="16" height="16" viewBox="0 0 16 16"><defs><mask id="a" x="0" y="0" width="16" height="16" maskUnits="userSpaceOnUse"><path d="M15.72,14.43l-3.34-3.34-.05,0a6.88,6.88,0,1,0-1.28,1.28l0,.05,3.34,3.34a.92.92,0,0,0,1.3-1.3ZM6.87,11.92A5,5,0,0,1,6.73,1.84h.14a5,5,0,0,1,0,10.08Z" fill="#fff" fill-rule="evenodd"/></mask></defs><title>Asset 59</title><path d="M15.72,14.43l-3.34-3.34-.05,0a6.88,6.88,0,1,0-1.28,1.28l0,.05,3.34,3.34a.92.92,0,0,0,1.3-1.3ZM6.87,11.92A5,5,0,0,1,6.73,1.84h.14a5,5,0,0,1,0,10.08Z"/><g mask="url(#a)"><path d="M0,0H16V16H0Z" fill="#101010" fill-rule="evenodd"/></g></svg>