<?xml version="1.0" encoding="utf-8"?>
<!-- Generator: Adobe Illustrator 23.1.1, SVG Export Plug-In . SVG Version: 6.00 Build 0)  -->
<svg version="1.1" id="Layer_1" xmlns="http://www.w3.org/2000/svg" xmlns:xlink="http://www.w3.org/1999/xlink" x="0px" y="0px"
	 width="16px" height="16px" viewBox="0 0 16 16" enable-background="new 0 0 16 16" xml:space="preserve">
<path id="search" fill-rule="evenodd" clip-rule="evenodd" d="M15.72,14.44l-3.35-3.35l-0.05-0.04c2.31-3.01,1.74-7.33-1.28-9.64
	S3.73-0.31,1.42,2.7s-1.74,7.33,1.28,9.64c2.47,1.89,5.89,1.89,8.36,0l0.04,0.05l3.35,3.35c0.36,0.36,0.94,0.36,1.3,0
	c0.36-0.36,0.36-0.94,0-1.3L15.72,14.44z M6.87,11.93C4.09,11.97,1.8,9.74,1.76,6.96C1.72,4.17,3.95,1.89,6.73,1.85
	c0.05,0,0.09,0,0.14,0c2.78,0.04,5.01,2.33,4.97,5.11C11.8,9.69,9.6,11.89,6.87,11.93z"/>
</svg>
