<?xml version="1.0" encoding="utf-8"?>
<!-- Generator: Adobe Illustrator 23.1.1, SVG Export Plug-In . SVG Version: 6.00 Build 0)  -->
<svg version="1.1" id="Layer_1" xmlns="http://www.w3.org/2000/svg" xmlns:xlink="http://www.w3.org/1999/xlink" x="0px" y="0px"
	 width="64px" height="64px" viewBox="0 0 64 64" enable-background="new 0 0 64 64" xml:space="preserve">
<g>
	<path id="a_17_" fill-rule="evenodd" clip-rule="evenodd" d="M44.19,34.29c-1.2-1-2.96-0.92-4.06,0.19c-1.18,1.19-1.18,3.11,0,4.31
		l4.06,4.09l4.06-4.09c1.18-1.19,1.18-3.11,0-4.31C47.15,33.37,45.39,33.29,44.19,34.29z M4.31,47.87V3.66
		c0-1.01,0.81-1.83,1.81-1.83h27.36c1,0,1.81,0.82,1.81,1.83v6.07h1.81V3.66C37.12,1.64,35.5,0,33.49,0H6.13
		c-2,0-3.63,1.64-3.63,3.66v44.22c0,2.02,1.62,3.66,3.63,3.66h18.03V49.7H6.13C5.13,49.7,4.32,48.88,4.31,47.87L4.31,47.87z
		 M19.24,20.05l-3.02,5.39c-0.11,0.2-0.11,0.45,0,0.65l3.02,5.39c0.25,0.45,0.89,0.45,1.14,0l3.02-5.39c0.11-0.2,0.11-0.45,0-0.65
		l-3.02-5.39c-0.17-0.31-0.57-0.43-0.89-0.25C19.39,19.86,19.3,19.94,19.24,20.05z M59.69,60.34c0,1.01-0.81,1.83-1.81,1.83H30.51
		c-1,0-1.81-0.82-1.81-1.83V16.12c0-1.01,0.81-1.83,1.81-1.83h27.36c1,0,1.81,0.82,1.81,1.83L59.69,60.34L59.69,60.34z M57.87,12.47
		H30.51c-2,0-3.63,1.64-3.63,3.66v44.22c0,2.02,1.62,3.66,3.63,3.66h27.36c2,0,3.63-1.64,3.63-3.66V16.12
		C61.5,14.1,59.88,12.47,57.87,12.47L57.87,12.47z"/>
</g>
</svg>
