<svg xmlns="http://www.w3.org/2000/svg" xmlns:xlink="http://www.w3.org/1999/xlink" width="64" height="64" viewBox="0 0 64 64">
    <defs>
        <path id="a" d="M62.158 17.08c0 1.566-1.294 3.095-2.826 3.34l-15.397 2.456c-2.43.388-4.2 2.551-4.118 5.038l.178 4.604c-.003 4.326-1.72 8.349-4.83 11.33-3.115 2.982-7.216 4.5-11.5 4.27-7.8-.412-14.229-6.903-14.638-14.774-.225-4.343 1.277-8.465 4.232-11.608 2.956-3.145 6.948-4.877 11.241-4.877h8.147l.427 1.377a2.726 2.726 0 0 0 5.221 0l.427-1.377h23.436v.222zM3.632 34.293a1.8 1.8 0 0 1-1.79-1.807 1.8 1.8 0 0 1 1.79-1.807 1.8 1.8 0 0 1 1.79 1.807 1.8 1.8 0 0 1-1.79 1.807zM37.367 15l-.83 2.681a.891.891 0 0 1-1.705 0L34.002 15H24.5c-4.803 0-9.27 1.937-12.578 5.456a17.414 17.414 0 0 0-4.74 11.268c-.346-1.658-1.804-2.905-3.55-2.905C1.626 28.819 0 30.46 0 32.485c0 2.025 1.626 3.666 3.632 3.666 1.75 0 3.212-1.252 3.554-2.918.004.07-.003.138.001.208.458 8.81 7.653 16.072 16.381 16.534.315.017.63.025.943.025 4.465 0 8.667-1.686 11.922-4.804 3.485-3.34 5.404-7.847 5.404-12.696l-.18-4.653c-.05-1.546 1.053-2.893 2.565-3.135l15.397-2.456C62.034 21.87 64 19.55 64 17.081V15H37.367zM24.418 41.825c-5.094 0-9.238-4.183-9.238-9.325 0-5.142 4.144-9.325 9.238-9.325 5.096 0 9.24 4.183 9.24 9.325 0 5.142-4.144 9.325-9.24 9.325zm0-20.51c-6.12 0-11.08 5.008-11.08 11.185 0 6.177 4.96 11.185 11.08 11.185S35.5 38.677 35.5 32.5c0-6.177-4.961-11.185-11.082-11.185z"/>
    </defs>
    <g fill="none" fill-rule="evenodd">
        <mask id="b" fill="#fff">
            <use xlink:href="#a"/>
        </mask>
        <use fill="#02906F" xlink:href="#a"/>
        <g fill="#101010" mask="url(#b)">
            <path d="M0 0h64v64H0z"/>
        </g>
    </g>
</svg>
