<?xml version="1.0" encoding="utf-8"?>
<!-- Generator: Adobe Illustrator 23.1.1, SVG Export Plug-In . SVG Version: 6.00 Build 0)  -->
<svg version="1.1" id="Layer_1" xmlns="http://www.w3.org/2000/svg" xmlns:xlink="http://www.w3.org/1999/xlink" x="0px" y="0px"
	 width="64px" height="64px" viewBox="0 0 64 64" enable-background="new 0 0 64 64" xml:space="preserve">
<g>
	<path id="a_16_" fill-rule="evenodd" clip-rule="evenodd" d="M62.16,16.58c0,1.57-1.29,3.09-2.83,3.34l-15.4,2.46
		c-2.43,0.39-4.2,2.55-4.12,5.04l0.18,4.6c0,4.33-1.72,8.35-4.83,11.33c-3.12,2.98-7.22,4.5-11.5,4.27
		c-7.8-0.41-14.23-6.9-14.64-14.77c-0.23-4.34,1.28-8.47,4.23-11.61c2.96-3.15,6.95-4.88,11.24-4.88h8.15l0.43,1.38
		c0.43,1.44,1.95,2.26,3.4,1.83c0.88-0.26,1.56-0.95,1.83-1.83l0.43-1.38h23.44L62.16,16.58L62.16,16.58z M3.63,33.79
		c-0.99-0.01-1.79-0.81-1.79-1.81c0-0.99,0.8-1.8,1.79-1.81c0.99,0.01,1.79,0.81,1.79,1.81C5.43,32.98,4.62,33.79,3.63,33.79z
		 M37.37,14.5l-0.83,2.68c-0.14,0.47-0.64,0.74-1.11,0.59c-0.28-0.09-0.51-0.31-0.59-0.59L34,14.5h-9.5c-4.8,0-9.27,1.94-12.58,5.46
		c-2.89,3.06-4.57,7.06-4.74,11.27c-0.35-1.66-1.8-2.91-3.55-2.91C1.63,28.32,0,29.96,0,31.98s1.63,3.67,3.63,3.67
		c1.75,0,3.21-1.25,3.55-2.92c0,0.07,0,0.14,0,0.21c0.46,8.81,7.65,16.07,16.38,16.53c0.32,0.02,0.63,0.03,0.94,0.03
		c4.47,0,8.67-1.69,11.92-4.8c3.49-3.34,5.4-7.85,5.4-12.7l-0.18-4.65c-0.05-1.55,1.05-2.89,2.56-3.14l15.4-2.46
		c2.42-0.39,4.38-2.71,4.38-5.18V14.5H37.37z M24.42,41.32c-5.09,0-9.24-4.18-9.24-9.32s4.14-9.33,9.24-9.33
		c5.1,0,9.24,4.18,9.24,9.33S29.51,41.32,24.42,41.32z M24.42,20.81c-6.12,0-11.08,5.01-11.08,11.18s4.96,11.18,11.08,11.18
		S35.5,38.18,35.5,32S30.54,20.81,24.42,20.81z"/>
</g>
</svg>
