<svg xmlns="http://www.w3.org/2000/svg" xmlns:xlink="http://www.w3.org/1999/xlink" width="64" height="64" viewBox="0 0 64 64">
    <defs>
        <path id="a" d="M3.829 62.171h42.057V53.03H3.829v9.142zM45.886 51.2H3.829A1.83 1.83 0 0 0 2 53.029v9.142C2 63.181 2.82 64 3.829 64h42.057a1.83 1.83 0 0 0 1.828-1.829V53.03a1.83 1.83 0 0 0-1.828-1.829zm5.485-7.31V32.913h-1.828l-9.143.004-.004-9.147h10.975v-1.828l-.003-9.143h9.146l.004 31.086-9.147.003zm9.147-32.919h-9.15a1.825 1.825 0 0 0-1.825 1.825v9.147h-9.147a1.825 1.825 0 0 0-1.825 1.825v9.15c0 1.007.818 1.825 1.825 1.825h9.147v9.146c0 1.008.817 1.825 1.825 1.825h9.15a1.825 1.825 0 0 0 1.825-1.825V12.796a1.825 1.825 0 0 0-1.825-1.825zM12.97 1.83V23.77H14.8l9.143-.004.004 9.147-20.118.005-.005-31.09h9.147zM3.824 34.743h20.123a1.825 1.825 0 0 0 1.824-1.824v-9.152a1.825 1.825 0 0 0-1.824-1.824H14.8V1.824A1.825 1.825 0 0 0 12.976 0H3.824A1.825 1.825 0 0 0 2 1.824v31.095c0 1.006.817 1.824 1.824 1.824z"/>
    </defs>
    <g fill="none" fill-rule="evenodd">
        <mask id="b" fill="#fff">
            <use xlink:href="#a"/>
        </mask>
        <use fill="#000" xlink:href="#a"/>
        <g fill="#101010" mask="url(#b)">
            <path d="M0 0h64v64H0z"/>
        </g>
    </g>
</svg>
