<?xml version="1.0" encoding="utf-8"?>
<!-- Generator: Adobe Illustrator 23.1.1, SVG Export Plug-In . SVG Version: 6.00 Build 0)  -->
<svg version="1.1" id="Layer_1" xmlns="http://www.w3.org/2000/svg" xmlns:xlink="http://www.w3.org/1999/xlink" x="0px" y="0px"
	 width="64px" height="64px" viewBox="0 0 64 64" enable-background="new 0 0 64 64" xml:space="preserve">
<g>
	<path id="a_7_" fill-rule="evenodd" clip-rule="evenodd" d="M3.66,62.17h42.06v-9.14H3.66V62.17L3.66,62.17z M45.71,51.2H3.66
		c-1.01,0-1.83,0.82-1.83,1.83v9.14c0,1.01,0.82,1.83,1.83,1.83h42.06c1.01,0,1.83-0.82,1.83-1.83v-9.14
		C47.54,52.02,46.72,51.2,45.71,51.2L45.71,51.2z M51.2,43.89V32.91h-1.83l-9.14,0l0-9.15H51.2v-1.83l0-9.14h9.15l0,31.09
		L51.2,43.89L51.2,43.89z M60.35,10.97H51.2c-1.01,0-1.83,0.82-1.83,1.82c0,0,0,0,0,0v9.15h-9.15c-1.01,0-1.83,0.82-1.83,1.82v0
		v9.15c0,1.01,0.82,1.83,1.83,1.83h9.15v9.15c0,1.01,0.82,1.83,1.83,1.83h9.15c1.01,0,1.82-0.82,1.82-1.83l0,0V12.8
		C62.17,11.79,61.35,10.97,60.35,10.97C60.35,10.97,60.35,10.97,60.35,10.97z M12.8,1.83v21.94h1.83l9.14,0l0,9.15L3.66,32.92
		L3.65,1.83L12.8,1.83L12.8,1.83z M3.65,34.74h20.12c1.01,0,1.82-0.82,1.82-1.82v-9.15c0-1.01-0.82-1.82-1.82-1.82h-9.15V1.82
		C14.63,0.82,13.81,0,12.8,0H3.65C2.65,0,1.83,0.82,1.83,1.82v31.09C1.83,33.92,2.65,34.74,3.65,34.74z"/>
</g>
</svg>
