<svg xmlns="http://www.w3.org/2000/svg" width="150.363" height="188" viewBox="0 0 150.363 188"><title>logo-wmdb-header</title><path d="M71.916,59.555A12.892,12.892,0,0,1,84.157,62.8a10.058,10.058,0,1,0,14.454-13.99,32.9,32.9,0,0,0-31.58-8.768A32.166,32.166,0,0,0,43.783,62.8L9.794,188H30.642L63.171,68.206A11.882,11.882,0,0,1,71.916,59.555Zm41.672,67.483a10.058,10.058,0,0,0-7.072,12.342l13.2,48.62h20.846l-14.633-53.89A10.058,10.058,0,0,0,113.588,127.038ZM146.31,16.907A32.09,32.09,0,0,0,117.676,0H32.687A32.087,32.087,0,0,0,4.053,16.907,32.091,32.091,0,0,0,5.268,50.135L16.184,67.014a10.058,10.058,0,0,0,16.9-10.895L22.182,39.187a11.9,11.9,0,0,1-.466-12.51,12.116,12.116,0,0,1,10.971-6.272h84.992a12.207,12.207,0,0,1,10.493,18.9l-42.487,65.9a12.407,12.407,0,0,1-12.373,5.556,10.048,10.048,0,1,0-2.932,19.881,33.661,33.661,0,0,0,4.934.358,32.233,32.233,0,0,0,27.29-14.964l42.5-65.959A32,32,0,0,0,146.31,16.907Z" fill="#fff"/></svg>