<svg xmlns="http://www.w3.org/2000/svg" width="199" height="54" viewBox="0 0 199 54">
    <defs>
        <linearGradient id="a" x1=".001%" x2="100.004%" y1="50%" y2="50%">
            <stop offset="0%" stop-color="#00A19A"/>
            <stop offset="100%" stop-color="#36A9E1"/>
        </linearGradient>
    </defs>
    <g fill="none" fill-rule="nonzero">
        <path fill="url(#a)" d="M4.577 9.446c.438.638 1.311.814 1.967.397A1.407 1.407 0 0 0 6.99 7.91L5.433 5.524a1.66 1.66 0 0 1-.066-1.764 1.734 1.734 0 0 1 1.566-.884h12.133a1.747 1.747 0 0 1 1.565.885c.314.56.289 1.245-.067 1.78L14.5 14.829a1.78 1.78 0 0 1-1.767.784 1.444 1.444 0 0 0-1.333.521c-.318.397-.398.93-.21 1.401.19.47.618.806 1.125.88.233.034.469.05.704.05a4.616 4.616 0 0 0 3.896-2.109l6.067-9.297a4.463 4.463 0 0 0 .172-4.676A4.59 4.59 0 0 0 19.066 0H6.933a4.59 4.59 0 0 0-4.088 2.383 4.475 4.475 0 0 0 .174 4.684l1.558 2.38zm21.246 29.742l-5.579-20.284a1.438 1.438 0 0 0-1.762-.997 1.416 1.416 0 0 0-1.01 1.74l5.584 20.304c.183.625 0 1.299-.475 1.75l-8.342 7.961a1.793 1.793 0 0 1-2.479 0l-8.343-7.959a1.752 1.752 0 0 1-.47-1.772l8.338-30.317a1.686 1.686 0 0 1 1.248-1.22 1.857 1.857 0 0 1 1.748.458c.355.37.885.524 1.386.402a1.428 1.428 0 0 0 1.039-.993 1.405 1.405 0 0 0-.362-1.381 4.736 4.736 0 0 0-4.508-1.236 4.565 4.565 0 0 0-3.319 3.208L.182 39.169a4.55 4.55 0 0 0 1.24 4.574l8.343 7.96a4.68 4.68 0 0 0 6.47 0l8.342-7.96a4.541 4.541 0 0 0 1.246-4.555z"/>
        <path fill="#3C3C3A" d="M112.727 23.739a.6.6 0 0 0 .522-.288 1.22 1.22 0 0 0 .195-.699 1.195 1.195 0 0 0-.185-.657.594.594 0 0 0-.532-.288h-7.287a1.172 1.172 0 0 0-.676.195.605.605 0 0 0-.286.524V36.11a.604.604 0 0 0 .286.524c.2.133.436.201.676.195h7.287a.594.594 0 0 0 .532-.287c.124-.197.188-.425.185-.658a1.22 1.22 0 0 0-.195-.698.602.602 0 0 0-.522-.288h-6.078V30.17h3.153c.209.01.41-.086.532-.257a.977.977 0 0 0 .184-.586 1.009 1.009 0 0 0-.194-.627.622.622 0 0 0-.522-.257h-3.153V23.74h6.078zm-37.808 0a.6.6 0 0 0 .522-.288 1.22 1.22 0 0 0 .195-.699 1.195 1.195 0 0 0-.185-.657.594.594 0 0 0-.532-.288h-7.285a1.172 1.172 0 0 0-.676.195.605.605 0 0 0-.286.524V36.11a.604.604 0 0 0 .286.524c.2.133.436.201.676.195h7.287a.594.594 0 0 0 .532-.287c.125-.197.189-.425.185-.658a1.22 1.22 0 0 0-.195-.698.602.602 0 0 0-.522-.288H68.84V30.17h3.152c.21.01.41-.086.532-.257a.977.977 0 0 0 .184-.586 1.009 1.009 0 0 0-.194-.627.622.622 0 0 0-.522-.257H68.84V23.74h6.08zm49.025-1.932h-8.493a.588.588 0 0 0-.532.301c-.125.21-.19.45-.184.695-.007.253.06.502.194.717a.595.595 0 0 0 .522.3h3.173V36.11c0 .22.122.421.317.523.233.136.499.203.767.195.266.005.528-.062.758-.195a.59.59 0 0 0 .328-.523V23.82h3.152a.595.595 0 0 0 .522-.301c.135-.222.203-.478.195-.738a1.253 1.253 0 0 0-.185-.685.593.593 0 0 0-.534-.29zm-23.868 0a1.65 1.65 0 0 0-.962.257c-.318.264-.57.598-.737.976l-2.907 5.446-2.865-5.446a2.6 2.6 0 0 0-.748-.976 1.7 1.7 0 0 0-.972-.257c-.283-.01-.56.085-.778.267-.22.215-.332.516-.307.822V36.11a.59.59 0 0 0 .328.524c.475.26 1.05.26 1.525 0a.592.592 0 0 0 .317-.524v-9.987l2.743 5.22c.121.3.414.496.737.493a.915.915 0 0 0 .798-.493l2.743-5.096v9.863a.59.59 0 0 0 .328.524c.475.26 1.05.26 1.525 0a.593.593 0 0 0 .317-.524V22.896a1.033 1.033 0 0 0-.307-.822 1.144 1.144 0 0 0-.777-.267zm-36.581-4.472A2.333 2.333 0 0 0 62.286 17c-.556 0-.887.194-.994.581l-4.414 15.494-2.458-9.71c-.141-.572-.599-.858-1.374-.858-.809 0-1.275.28-1.398.841l-2.433 9.71-4.43-15.46c-.11-.398-.443-.597-1-.598a2.33 2.33 0 0 0-1.216.34.973.973 0 0 0-.568.827.939.939 0 0 0 .027.271l5.377 17.577c.103.322.34.584.648.718.733.345 1.58.344 2.311-.002.308-.132.538-.4.621-.727l2.052-8.192 2.078 8.207c.085.324.317.589.626.716.353.172.741.26 1.134.256.393.004.781-.086 1.133-.262.316-.142.562-.407.68-.733l5.343-17.578a.928.928 0 0 0 .027-.268.958.958 0 0 0-.563-.815zm18.754 6.404c1.474 0 2.286.733 2.436 2.199.013.479.375.719 1.085.719.294.026.588-.054.829-.226.197-.226.29-.524.256-.822a3.358 3.358 0 0 0-1.302-2.763 5.233 5.233 0 0 0-3.367-1.038 4.747 4.747 0 0 0-3.275 1.11c-.833.74-1.249 1.897-1.249 3.472v5.98c0 1.576.416 2.733 1.249 3.473a5.587 5.587 0 0 0 6.683 0c.84-.74 1.259-1.897 1.259-3.473v-2.692a.755.755 0 0 0-.195-.524.668.668 0 0 0-.521-.216h-3.52a.59.59 0 0 0-.51.265 1.006 1.006 0 0 0-.185.589c-.007.22.058.438.184.62.117.166.31.261.512.253h2.067v1.693a2.794 2.794 0 0 1-.634 2.003 2.38 2.38 0 0 1-1.802.66c-1.61 0-2.415-.883-2.415-2.65V26.39c0-1.768.805-2.651 2.415-2.651zm102.158-1.366c-.175-.46-.667-.69-1.477-.69-.797 0-1.282.248-1.456.74l-4.065 13.319a.627.627 0 0 0-.02.184.757.757 0 0 0 .429.637c.275.174.594.266.919.266a.69.69 0 0 0 .756-.455l.837-2.936h5.032l.847 2.944c.104.298.372.447.803.447.356 0 .705-.097 1.011-.28a.794.794 0 0 0 .478-.667.72.72 0 0 0-.041-.194l-4.053-13.315zm-3.584 9.339l2.01-7.053 2.053 7.053h-4.063zm17.808-1.03a3.52 3.52 0 0 0-.951-1.333 7.408 7.408 0 0 0-1.29-.858c-.461-.243-.936-.46-1.423-.65-.477-.186-.91-.376-1.3-.569a2.87 2.87 0 0 1-.951-.733 1.613 1.613 0 0 1-.369-1.064 1.586 1.586 0 0 1 .696-1.416 3.306 3.306 0 0 1 1.863-.464c.455-.008.907.059 1.34.196.322.102.634.234.932.393.166.109.356.176.553.196.273 0 .525-.15.655-.393.154-.23.24-.5.245-.778a.874.874 0 0 0-.388-.691 2.76 2.76 0 0 0-.983-.468 8.136 8.136 0 0 0-1.2-.232 9.867 9.867 0 0 0-1.155-.071 6.93 6.93 0 0 0-1.669.195 5.424 5.424 0 0 0-1.504.625c-.486.295-.88.722-1.136 1.23a4.004 4.004 0 0 0-.42 1.886c-.03.813.212 1.613.686 2.273a4.368 4.368 0 0 0 1.668 1.363c.655.303 1.307.586 1.955.847.615.241 1.178.6 1.658 1.054.452.428.701 1.03.686 1.653a1.954 1.954 0 0 1-.706 1.632 2.936 2.936 0 0 1-1.873.558 3.575 3.575 0 0 1-1.402-.264 2.946 2.946 0 0 1-.932-.569 9.398 9.398 0 0 0-.624-.568.928.928 0 0 0-.542-.264.813.813 0 0 0-.655.39 1.312 1.312 0 0 0-.287.781c0 .562.44 1.107 1.32 1.634a6.122 6.122 0 0 0 3.204.791 4.982 4.982 0 0 0 3.388-1.112c.852-.742 1.279-1.82 1.28-3.236a4.887 4.887 0 0 0-.372-1.965h.003zm-26.344-8.31c-.174-.458-.667-.688-1.477-.688-.797 0-1.282.247-1.456.74l-4.064 13.318a.627.627 0 0 0-.02.184.757.757 0 0 0 .428.637c.275.174.594.266.92.266a.69.69 0 0 0 .755-.455l.838-2.936h5.031l.848 2.944c.104.298.371.447.802.447.356 0 .706-.097 1.012-.28a.794.794 0 0 0 .477-.667.72.72 0 0 0-.041-.194l-4.053-13.315zm-3.584 9.34l2.011-7.053 2.052 7.053h-4.063zm-8.347-5.625c1.532-.687 2.298-2.151 2.298-4.394 0-1.754-.495-2.974-1.486-3.662-.99-.688-2.314-1.031-3.97-1.03h-4.921a1.546 1.546 0 0 0-.892.257.798.798 0 0 0-.378.692v17.956a.8.8 0 0 0 .35.651c.268.191.592.287.92.271h5.485c1.638 0 2.944-.452 3.918-1.356.974-.904 1.46-2.35 1.459-4.34v-.515c0-1.302-.234-2.292-.702-2.97a4.4 4.4 0 0 0-2.08-1.56zm-6.512-6.537h3.16c1.857 0 2.785.868 2.785 2.604 0 1.863-.91 2.795-2.73 2.795h-3.215V19.55zm6.43 11.365c0 2.243-1.017 3.364-3.052 3.364h-3.378v-7.053h3.378a3.126 3.126 0 0 1 2.283.76c.513.506.77 1.338.77 2.495v.434zm-12.77-7.176a.6.6 0 0 0 .522-.288 1.22 1.22 0 0 0 .195-.699 1.195 1.195 0 0 0-.184-.657.594.594 0 0 0-.533-.288h-7.287a1.172 1.172 0 0 0-.675.195.605.605 0 0 0-.287.524V36.11a.604.604 0 0 0 .287.524c.2.133.435.201.675.195h7.287a.594.594 0 0 0 .533-.287c.124-.197.188-.425.184-.658a1.22 1.22 0 0 0-.195-.698.602.602 0 0 0-.522-.288h-6.08V30.17h3.153c.21.01.41-.086.532-.257a.977.977 0 0 0 .185-.586 1.009 1.009 0 0 0-.195-.627.622.622 0 0 0-.522-.257h-3.152V23.74h6.08zm-16.007-1.932h-3.623a1.118 1.118 0 0 0-.686.206.603.603 0 0 0-.277.493V36.13c.005.2.109.385.277.493.2.142.44.214.686.205h3.623a4.876 4.876 0 0 0 3.347-1.11c.839-.739 1.259-1.897 1.259-3.472V26.39c0-1.576-.42-2.733-1.26-3.473a4.877 4.877 0 0 0-3.346-1.11zm2.436 10.439c0 1.767-.812 2.65-2.436 2.65h-2.415V23.74h2.415c1.624 0 2.436.883 2.436 2.65v5.857z"/>
    </g>
</svg>
